<?xml version="1.0" encoding="UTF-8"?>
<svg id="Capa_2" xmlns="http://www.w3.org/2000/svg" version="1.1" viewBox="0 0 465 146.2">
  <!-- Generator: Adobe Illustrator 30.3.0, SVG Export Plug-In . SVG Version: 2.1.3 Build 182)  -->
  <defs>
    <style>
      .st0 {
        fill: #fff;
      }
    </style>
  </defs>
  <path class="st0" d="M20.7,74.5v39.3c0,6.4,2.3,9.6,6.9,9.6s3.6-.7,5-2c1.4-1.3,2-2.9,2-4.8s-.6-3.6-1.9-4.9c-1.3-1.3-2.9-2-4.7-2s-2.8.6-4.5,1.7v-19.8c2.1-.2,3.7-.3,4.8-.3,6.8,0,12.6,2.4,17.4,7.3,4.8,4.9,7.2,10.7,7.2,17.6s-2.5,12.9-7.3,17.7c-4.9,4.8-10.9,7.2-18.1,7.2s-7.1-.8-10.5-2.4-6.2-3.7-8.4-6.4c-3.8-4.6-5.8-10.6-5.8-17.9v-40h18,0Z"/>
  <path class="st0" d="M87.4,122.1v18.6c-1.5.3-2.8.4-4,.4-7.2,0-13.2-2.4-18-7.1-4.8-4.7-7.2-10.7-7.2-17.8s2.4-12.8,7.3-17.7c4.8-4.8,10.8-7.3,17.7-7.3s13.9,2.3,18.3,6.8c4.5,4.5,6.7,10.7,6.7,18.6v23.5h-18v-22.2c0-2.5-.6-4.6-1.8-6.1-1.2-1.5-2.9-2.3-5-2.3s-3.5.7-4.9,2.1-2.1,3-2.1,4.9.6,3.6,1.9,4.9,2.8,1.9,4.8,1.9,3-.4,4.4-1.2h0Z"/>
  <path class="st0" d="M148.2,74.5h18v39.9c0,7.3-1.9,13.3-5.8,17.9-2.2,2.7-5,4.8-8.4,6.4-3.4,1.6-6.9,2.4-10.5,2.4-7.1,0-13.2-2.4-18.1-7.2s-7.3-10.7-7.3-17.7,2.4-12.6,7.3-17.6c4.9-4.9,10.6-7.4,17.3-7.4s2.7,0,4.8.3v19.8c-1.5-1.2-2.9-1.7-4.4-1.7s-3.4.7-4.8,2-2,3-2,4.9.7,3.4,2.1,4.8,3,2,4.9,2c4.6,0,6.9-3.2,6.9-9.6v-39.3h0Z"/>
  <path class="st0" d="M202.2,122.1v18.6c-1.5.3-2.8.4-4,.4-7.2,0-13.2-2.4-18-7.1s-7.2-10.7-7.2-17.8,2.4-12.8,7.3-17.7c4.9-4.8,10.8-7.3,17.7-7.3s13.9,2.3,18.3,6.8c4.5,4.5,6.7,10.7,6.7,18.6v23.5h-18v-22.2c0-2.5-.6-4.6-1.9-6.1-1.2-1.5-2.9-2.3-5-2.3s-3.5.7-4.9,2.1-2.1,3-2.1,4.9.6,3.6,1.9,4.9,2.8,1.9,4.8,1.9,3-.4,4.4-1.2h0Z"/>
  <path class="st0" d="M270.6,0v39.8h60.4v41.2h-60.4c0,8.3,1.3,14,3.9,17.1s7.4,4.7,14.3,4.7v41c-2,0-3.5.1-4.5.1-8.8,0-17.2-2.1-25-6.1-7.8-4.1-14.1-9.7-18.8-16.7-6-9-9-20.9-9-35.7V0h39.1Z"/>
  <path class="st0" d="M375.9,0v85.2c0,13.8,5,20.8,14.9,20.8s7.8-1.4,10.8-4.3,4.4-6.4,4.4-10.5-1.4-7.8-4.2-10.7c-2.8-2.9-6.2-4.3-10.2-4.3s-6.1,1.2-9.8,3.8v-43c4.6-.4,8.1-.6,10.4-.6,14.7,0,27.2,5.3,37.7,15.9s15.7,23.3,15.7,38.2-5.3,28.1-16,38.5c-10.6,10.4-23.7,15.6-39.2,15.6s-15.4-1.7-22.8-5.1c-7.4-3.4-13.5-8-18.3-13.8-8.4-10-12.5-23-12.5-38.9V0h39.1Z"/>
  <path class="st0" d="M10.7,67.1l.6,3.5c-1.1.2-2.1.3-3,.3-1.5,0-2.7-.3-3.5-.8s-1.4-1.2-1.6-2c-.2-.8-.3-2.2-.3-4.3v-13.3H0v-3h2.8v-5.8l3.9-2.4v8.1h3.9v3h-3.9v13.5c0,1.3,0,2.1.4,2.6s.9.6,1.8.6,1.1,0,1.7-.2h0v.2Z"/>
  <path class="st0" d="M14.6,70.6v-23.1h3.5v3.5h0c.7-1.4,1.4-2.4,2.1-3s1.6-1,2.8-1,2.7.4,4,1.2l-1.4,3.6c-.9-.6-1.9-.8-2.9-.8s-2.5.6-3.3,1.9-1.1,3.1-1.1,5.6v12.1h-3.9.2Z"/>
  <path class="st0" d="M49.6,70.6h-4.1c-.4-.8-.7-1.8-.8-2.8-2.6,2.3-5.4,3.4-8.5,3.4s-4.3-.6-5.8-1.8-2.1-2.8-2.1-4.8.6-3.1,1.8-4.5,3.5-2.3,6.8-2.7c3.3-.4,5.8-.8,7.5-1.4v-1c0-1.7-.4-2.9-1.3-3.6-.9-.7-2.3-1.1-4.3-1.1s-3.3.3-4.2,1-1.5,1.8-1.8,3.4l-3.8-.5c.8-4.8,4.3-7.1,10.4-7.1s3.3.2,4.5.6,2.2.9,2.9,1.7c.7.7,1.1,1.5,1.3,2.3.2.9.3,2.2.3,4.1v5.3c0,3.6,0,5.9.2,6.9.2.9.5,1.9,1,2.8h0v-.2ZM44.3,60.4v-1.4c-1.4.5-3.4,1-5.8,1.4-2.4.4-4.1.8-4.9,1.4-.8.6-1.2,1.4-1.2,2.6s.4,2,1.3,2.7c.8.7,2,1,3.4,1s2.9-.3,4.1-1.1c1.2-.7,2-1.5,2.4-2.5.5-1,.7-2.3.7-4h0Z"/>
  <path class="st0" d="M54.4,70.6v-23.1h3.5v3.3h0c1.6-2.5,4.1-3.8,7.3-3.8s2.7.2,3.9.8c1.2.5,2,1.2,2.7,2,.6.8,1,1.7,1.2,2.5s.2,2.2.2,4.2v14.2h-3.9v-14c0-1.6-.2-2.8-.4-3.6-.3-.8-.8-1.4-1.6-1.9-.8-.5-1.7-.8-2.8-.8s-2.1.2-3.1.8c-1,.5-1.7,1.2-2.2,2.2s-.8,2.5-.8,4.7v12.6h-4Z"/>
  <path class="st0" d="M77.5,63.7l3.9-.6c.4,3.2,2.4,4.8,6,4.8s2.9-.3,3.9-1,1.4-1.6,1.4-2.7-.3-1.4-.9-1.9c-.6-.4-2.1-1-4.4-1.5-2.4-.6-4.2-1.2-5.4-1.7-1.2-.5-2.2-1.3-2.8-2.2s-1-2-1-3.3c0-2,.8-3.6,2.3-4.8,1.6-1.2,3.6-1.8,6.2-1.8,5.6,0,8.7,2.2,9.2,6.5l-3.8.5c-.4-2.5-2.1-3.8-5.1-3.8s-2.8.3-3.7.8c-.9.5-1.3,1.3-1.3,2.2s.3,1.5.9,1.9,2.3.9,5.1,1.7c2.8.7,4.7,1.4,5.7,1.9s1.8,1.2,2.3,2.1.8,1.9.8,3.1c0,2.1-.9,3.9-2.6,5.2-1.7,1.4-4,2.1-6.7,2.1-5.8,0-9.1-2.5-9.9-7.5h0Z"/>
  <path class="st0" d="M101.5,79.5v-32h3.6v3h0c1.5-2.3,3.7-3.5,6.6-3.5s5.3,1.1,7.1,3.2c1.8,2.2,2.7,5,2.7,8.6s-.9,6.6-2.8,8.9-4.3,3.4-7.3,3.4-4.5-1-6-3h0v11.3h-3.9.1ZM111.4,50c-1.9,0-3.4.9-4.6,2.6s-1.8,4-1.8,6.8.6,4.6,1.7,6.1c1.1,1.5,2.6,2.3,4.5,2.3s3.5-.8,4.6-2.4,1.7-3.8,1.7-6.7-.6-4.8-1.7-6.4c-1.1-1.6-2.6-2.4-4.5-2.4h.1Z"/>
  <path class="st0" d="M135.7,71.2c-3.1,0-5.6-1-7.7-3-2.1-2-3.1-5-3.1-9.1s1.1-7.2,3.2-9.2,4.7-2.9,7.6-2.9,5.9,1.1,7.9,3.2c2,2.1,2.9,5,2.9,8.5s-1.1,7.7-3.3,9.6-4.7,2.9-7.6,2.9h.1ZM135.7,50.2c-2.1,0-3.8.8-5,2.4-1.2,1.6-1.8,3.8-1.8,6.5s.6,4.9,1.8,6.5,2.9,2.3,5,2.3,3.8-.8,5-2.4,1.8-3.8,1.8-6.6-.6-4.8-1.9-6.4c-1.2-1.6-2.9-2.4-5-2.4h0Z"/>
  <path class="st0" d="M151,70.6v-23.1h3.5v3.5h0c.7-1.4,1.4-2.4,2.1-3,.7-.6,1.6-1,2.8-1s2.7.4,4,1.2l-1.4,3.6c-.9-.6-1.9-.8-2.9-.8s-2.5.6-3.3,1.9-1.1,3.1-1.1,5.6v12.1h-3.9.2Z"/>
  <path class="st0" d="M174.4,67.1l.6,3.5c-1.1.2-2.1.3-3,.3-1.5,0-2.7-.3-3.5-.8s-1.4-1.2-1.6-2c-.2-.8-.3-2.2-.3-4.3v-13.3h-2.9v-3h2.9v-5.8l3.9-2.4v8.1h3.9v3h-3.9v13.5c0,1.3.1,2.1.4,2.6s.9.6,1.8.6,1.1,0,1.7-.2h0v.2Z"/>
  <path class="st0" d="M194.2,63.2l4,.5c-1.4,5-4.8,7.5-10.1,7.5s-6.2-1.1-8.1-3.2-2.9-5-2.9-8.8,1-6.7,2.9-8.9,4.6-3.3,7.9-3.3,5.8,1.1,7.7,3.3,2.9,5.1,2.9,8.8v1h-17.3c.2,2.5.9,4.4,2.1,5.8,1.3,1.4,2.9,2.1,4.9,2.1,3,0,5-1.6,6.1-4.7h0ZM181.3,56.8h12.9c-.1-2.2-.8-3.9-2.1-5s-2.7-1.7-4.3-1.7-3.2.6-4.5,1.8c-1.2,1.2-1.9,2.8-2.1,4.8h.1Z"/>
  <path class="st0" d="M201.6,63.7l3.9-.6c.4,3.2,2.4,4.8,6,4.8s2.9-.3,3.9-1,1.4-1.6,1.4-2.7-.3-1.4-.9-1.9c-.6-.4-2.1-1-4.4-1.5-2.4-.6-4.2-1.2-5.4-1.7s-2.2-1.3-2.9-2.2c-.6-.9-1-2-1-3.3,0-2,.8-3.6,2.4-4.8,1.6-1.2,3.6-1.8,6.2-1.8,5.6,0,8.7,2.2,9.2,6.5l-3.8.5c-.4-2.5-2.1-3.8-5.1-3.8s-2.8.3-3.7.8-1.3,1.3-1.3,2.2.3,1.5.9,1.9c.6.4,2.3.9,5.1,1.7,2.8.7,4.7,1.4,5.7,1.9s1.8,1.2,2.3,2.1.8,1.9.8,3.1c0,2.1-.9,3.9-2.6,5.2-1.7,1.4-4,2.1-6.7,2.1-5.8,0-9.1-2.5-9.9-7.5h0Z"/>
  <path class="st0" d="M465,134.8c0,5.3-4.2,9.5-9.6,9.5s-9.7-4.2-9.7-9.5,4.3-9.4,9.7-9.4,9.6,4.2,9.6,9.4ZM448.1,134.8c0,4.2,3.1,7.5,7.3,7.5s7.1-3.3,7.1-7.4-3-7.5-7.2-7.5-7.3,3.4-7.3,7.5h.1ZM453.9,139.7h-2.2v-9.4c.9-.2,2.1-.3,3.6-.3s2.6.3,3.3.7c.5.4.9,1.1.9,2.1s-.8,1.8-1.9,2.2h0c.9.4,1.4,1.1,1.7,2.4.3,1.4.5,2,.7,2.3h-2.3c-.3-.3-.5-1.2-.7-2.3-.2-1-.7-1.5-1.9-1.5h-1v3.8h-.2ZM454,134.4h1c1.2,0,2.2-.4,2.2-1.4s-.6-1.4-2-1.4-1,0-1.2.1v2.7h0Z"/>
  <path class="st0" d="M317.2,100.4c-12.6,0-22.9,10.3-22.9,22.9s10.3,22.9,22.9,22.9,22.9-10.3,22.9-22.9-10.3-22.9-22.9-22.9ZM317.4,139.8l-12.7-12.8h25.5l-12.8,12.8ZM304.7,120l12.7-12.7,12.8,12.7h-25.5Z"/>
</svg>